<svg xmlns="http://www.w3.org/2000/svg" xmlns:xlink="http://www.w3.org/1999/xlink" viewBox="0,0,256,256" width="512px" height="512px" fill-rule="nonzero"><g fill="#5c7cfa" fill-rule="nonzero" stroke="none" stroke-width="1" stroke-linecap="butt" stroke-linejoin="miter" stroke-miterlimit="10" stroke-dasharray="" stroke-dashoffset="0" font-family="none" font-weight="none" font-size="none" text-anchor="none" style="mix-blend-mode: normal"><g transform="scale(2,2)"><path d="M113.66211,1c-0.7625,0 -1.5125,0.30039 -2.0625,0.90039l-2.69922,2.69922c-0.1,0.1 -0.30039,0.3 -0.40039,0.5c-0.8,1.1 -0.69922,2.70117 0.30078,3.70117l4.89844,5.09961c1.1,1.2 1.1,3.09922 0,4.19922l-20.29883,20.30078c-1.2,1.2 -3.10117,1.2 -4.20117,0c-1.2,-1.2 -1.2,-3.10117 0,-4.20117l16.10156,-16.09961c1.2,-1.2 1.2,-2.99922 0,-4.19922l-0.70117,-0.70117c-1,-1 -2.59883,-1.19844 -3.79883,-0.39844c-0.2,0.1 -0.3,0.19844 -0.5,0.39844l-30.30078,30.20117c-0.6,0.6 -0.90039,1.29961 -0.90039,2.09961c0,0.8 0.30039,1.59961 0.90039,2.09961l3.69922,3.70117l1.90039,1.89844c1,1 1.3,2.70039 0.5,3.90039c-1.1,1.6 -3.29961,1.8 -4.59961,0.5l-1.5,-1.59961l-4.09961,-4.09961c-0.7,-0.7 -1.70117,-1.00078 -2.70117,-0.80078c-1,0.2 -1.79922,0.90078 -2.19922,1.80078l-7,16.90039c-0.5,1.1 -0.20039,2.49844 0.59961,3.39844c0.8,0.9 2.10117,1.10117 3.20117,0.70117l17,-7.20117c0.3,-0.1 0.7,-0.39961 1,-0.59961l8.5,-8.5l41.59961,-41.5c0.6,-0.6 0.90039,-1.29961 0.90039,-2.09961c0,-0.8 -0.30039,-1.59961 -0.90039,-2.09961l-10.09961,-10c-0.6,-0.6 -1.37617,-0.90039 -2.13867,-0.90039zM19,6c-7.2,0 -13,5.8 -13,13v90c0,7.2 5.8,13 13,13h50c1.7,0 3,-1.3 3,-3c0,-1.7 -1.3,-3 -3,-3h-50c-3.9,0 -7,-3.1 -7,-7v-90c0,-3.9 3.1,-7 7,-7h60c1.7,0 3,-1.3 3,-3c0,-1.7 -1.3,-3 -3,-3zM119,36c-1.7,0 -3,1.3 -3,3v47h-17c-7.2,0 -13,5.8 -13,13v20c0,1.2 0.70039,2.30078 1.90039,2.80078c0.3,0.1 0.69961,0.19922 1.09961,0.19922c0.8,0 1.49961,-0.30039 2.09961,-0.90039l30,-30c0.6,-0.6 0.90039,-1.29961 0.90039,-2.09961v-50c0,-1.7 -1.3,-3 -3,-3zM99,92h12.80078l-19.80078,19.80078v-12.80078c0,-3.9 3.1,-7 7,-7z"></path></g></g></svg>